<svg width="589" height="378" viewBox="0 0 589 378" fill="none" xmlns="http://www.w3.org/2000/svg">
<path d="M290.833 361.351L36.8125 233.523C28.7285 229.661 21.793 223.305 29.6709 219.154L284.605 94.0479C288.433 92.0293 294.235 90.7128 298.122 92.6311L564.763 224.395C572.847 228.395 574.304 239.567 566.235 243.566L324.303 361.15C319.226 363.656 313.469 364.993 307.6 365.028C301.731 365.064 295.952 363.796 290.833 361.351Z" fill="#4444A5"/>
<path d="M225.131 173.114C225.131 173.114 193.059 176.876 182.428 170.18C171.797 163.485 137.119 141.869 137.119 141.869L142.7 135.399C142.7 135.399 189.82 144.452 208.786 143.336C227.752 142.22 225.131 173.114 225.131 173.114Z" fill="#68E1FD"/>
<path opacity="0.61" d="M225.131 173.114C225.131 173.114 193.059 176.876 182.428 170.18C171.797 163.485 137.119 141.869 137.119 141.869L142.7 135.399C142.7 135.399 189.82 144.452 208.786 143.336C227.752 142.22 225.131 173.114 225.131 173.114Z" fill="#363636"/>
<path d="M258.542 134.358C258.542 134.358 253.123 107.188 242.447 100.505C231.771 93.8223 197.138 72.1938 197.138 72.1938L191.558 78.6635C191.558 78.6635 215.824 114.197 220.271 129.97C224.718 145.743 258.542 134.358 258.542 134.358Z" fill="#68E1FD"/>
<path opacity="0.61" d="M258.542 134.358C258.542 134.358 253.123 107.188 242.447 100.505C231.771 93.8223 197.138 72.1938 197.138 72.1938L191.558 78.6635C191.558 78.6635 215.824 114.197 220.271 129.97C224.718 145.743 258.542 134.358 258.542 134.358Z" fill="#363636"/>
<path d="M354.048 247.19C369.181 250.899 384.785 253.037 400.52 253.559C400.52 253.559 394.998 238.388 379.08 217.625C366.078 222.853 358.451 234.928 354.048 247.19Z" fill="#68E1FD"/>
<path d="M307.177 194.562C314.658 185.88 313.451 174.299 304.482 168.695C295.512 163.091 282.176 165.586 274.695 174.267C267.214 182.949 268.42 194.53 277.39 200.134C286.359 205.738 299.695 203.243 307.177 194.562Z" fill="#68E1FD"/>
<path d="M400.52 253.559C400.52 253.559 366.756 160.776 225.646 120.303C225.646 120.303 198.198 108.542 189.187 119.914C180.175 131.287 199.318 156.401 199.318 156.401C199.318 156.401 287.138 250.187 400.52 253.559Z" fill="#68E1FD"/>
<path opacity="0.61" d="M354.048 247.19C369.181 250.899 384.785 253.037 400.52 253.559C400.52 253.559 394.998 238.388 379.08 217.625C366.078 222.853 358.451 234.928 354.048 247.19Z" fill="#363636"/>
<path opacity="0.61" d="M307.177 194.562C314.658 185.88 313.451 174.299 304.482 168.695C295.512 163.091 282.176 165.586 274.695 174.267C267.214 182.949 268.42 194.53 277.39 200.134C286.359 205.738 299.695 203.243 307.177 194.562Z" fill="#363636"/>
<path d="M225.69 120.303C225.69 120.303 221.95 101.583 214.602 97.007C207.254 92.4305 183.385 77.4975 183.385 77.4975L179.542 81.9486C179.542 81.9486 196.255 106.436 199.332 117.294C202.41 128.152 225.69 120.303 225.69 120.303Z" fill="#68E1FD"/>
<path d="M199.538 150.646C199.538 150.646 177.451 153.228 170.088 148.627C162.726 144.025 138.871 129.117 138.871 129.117L142.715 124.666C142.715 124.666 175.11 130.935 188.259 130.133C201.409 129.331 199.538 150.646 199.538 150.646Z" fill="#68E1FD"/>
<path opacity="0.29" d="M225.69 120.303C225.69 120.303 221.95 101.583 214.602 97.007C207.254 92.4305 183.385 77.4975 183.385 77.4975L179.542 81.9486C179.542 81.9486 196.255 106.436 199.332 117.294C202.41 128.152 225.69 120.303 225.69 120.303Z" fill="#363636"/>
<path opacity="0.29" d="M199.538 150.646C199.538 150.646 177.451 153.228 170.088 148.627C162.726 144.025 138.871 129.117 138.871 129.117L142.715 124.666C142.715 124.666 175.11 130.935 188.259 130.133C201.409 129.331 199.538 150.646 199.538 150.646Z" fill="#363636"/>
<path d="M255.92 149.316C255.92 149.316 249.368 150.871 247.542 155.51C245.716 160.15 244.597 168.262 247.542 171.647C250.487 175.032 257.364 175.346 259.558 173.49C261.752 171.635 261.383 164.5 261.383 164.5" fill="#421309"/>
<path d="M295.973 162.958C295.973 162.958 301.863 181.552 293.793 183.721C285.724 185.891 255.935 164.5 255.935 164.5L259.204 159.485" fill="#D26C3B"/>
<path d="M296.341 164.011C295.701 162.128 294.249 160.52 292.277 159.51C291.153 158.99 289.98 158.55 288.772 158.194C288.203 158.02 287.617 157.894 287.02 157.817C286.313 157.705 285.547 157.629 284.678 157.542C282.356 157.626 280.145 158.408 278.435 159.748L277.051 161.265C276.417 162.102 276.056 163.067 276.005 164.061C275.792 164.718 275.792 165.411 276.005 166.068C276.056 167.062 276.417 168.027 277.051 168.864C278.111 170.391 279.753 171.563 281.704 172.186C282.29 172.566 282.947 172.858 283.648 173.051C284.693 173.522 285.867 173.747 287.049 173.703C287.913 173.696 288.771 173.582 289.597 173.365L290.186 173.252C292.402 172.716 294.294 171.478 295.472 169.791C296.056 168.924 296.434 167.967 296.583 166.975C296.732 165.983 296.65 164.976 296.341 164.011Z" fill="#D26C3B"/>
<path d="M315.248 134.76C315.248 134.76 329.811 135.374 329.074 143.123C328.338 150.871 311.242 171.635 311.242 171.635L301.421 173.49L304.69 156.438L315.248 134.76Z" fill="#D77641"/>
<path d="M311.242 171.635C311.242 171.635 324.716 186.505 325.805 188.687C326.895 190.868 325.805 198.291 318.531 196.122C311.257 193.953 298.005 181.552 298.005 181.552L301.421 173.49L311.242 171.635Z" fill="#421309"/>
<path d="M294.132 131.324L315.248 134.735L304.69 156.401L291.953 154.231L295.958 162.908C295.958 162.908 281.763 154.846 271.941 171.584C271.941 171.584 258.115 159.184 254.477 153.918C252.223 150.484 250.858 146.679 250.472 142.759C250.472 142.759 270.498 145.267 277.404 141.204C284.31 137.142 294.132 131.324 294.132 131.324Z" fill="#501A12"/>
<path d="M327.587 101.232C327.587 101.232 312.862 93.5715 308.783 90.6626C305.968 88.7605 302.817 87.2498 299.448 86.1865C299.448 86.1865 281.115 84.0675 273.797 84.5941C268.559 84.9649 263.391 85.8527 258.394 87.2397C253.977 88.2929 226.515 100.317 228.753 101.257C230.991 102.198 245.746 107.652 245.746 107.652C245.746 107.652 256.539 102.862 255.92 106.574C255.302 110.285 244.995 136.364 250.458 142.872C255.92 149.379 283.898 143.386 288.566 139.675C291.356 137.456 293.296 134.572 294.132 131.399C294.132 131.399 292.924 117.206 294.471 113.608C295.978 110.657 297.854 107.853 300.066 105.245C300.066 105.245 315.616 114.811 318.723 113.608C321.83 112.404 327.587 101.232 327.587 101.232Z" fill="#BEC2CD"/>
<path d="M245.746 107.602C245.746 107.602 241.843 100.267 233.538 101.333C225.234 102.398 228.768 114.046 236.483 117.068C244.199 120.09 254.006 120.479 255.935 122.961C257.864 125.444 263.415 131.613 267.111 132.139C268.99 132.482 270.932 132.482 272.81 132.139C273.102 131.209 273.158 130.237 272.972 129.288C272.787 128.339 272.365 127.434 271.735 126.635C269.585 123.876 265.418 122.309 266.964 121.783C268.51 121.256 269.114 123.35 271.279 122.698C273.443 122.046 274.739 121.645 273.09 120.729C271.441 119.814 262.665 118.635 259.425 117.457C256.186 116.278 245.495 110.222 245.746 107.602Z" fill="#D7763F"/>
<path d="M319.282 109.307C319.282 109.307 337.144 114.548 337.453 116.83C337.762 119.112 340.53 122.861 342.989 123.914C345.448 124.967 350.838 126.923 351.147 125.481C351.456 124.039 348.688 123.513 347.304 122.472C345.92 121.431 345.831 120.378 347.157 120.378C348.482 120.378 353.312 122.61 357.626 122.886C361.94 123.162 364.252 122.886 365.165 122.359C366.078 121.833 363.928 117.77 360.851 116.855C357.773 115.94 350.838 116.065 347.922 115.15C345.007 114.235 331.901 101.621 327.587 101.232C323.273 100.844 316.823 104.718 319.282 109.307Z" fill="#D7763F"/>
<path d="M302.879 78.6635C302.879 78.6635 303.188 95.6152 291.099 96.1418C279.009 96.6684 280.526 80.5192 280.526 80.5192C283.559 80.4021 286.596 80.6683 289.538 81.3091C294.161 82.425 302.879 78.6635 302.879 78.6635Z" fill="#D77641"/>
<path d="M273.458 78.6635C273.458 78.6635 273.605 89.8351 274.695 89.6846C275.785 89.5342 276.683 85.7978 276.83 87.4403C276.977 89.0828 277.728 91.2018 278.818 91.6782C279.908 92.1547 281.247 88.9825 281.689 89.9479C282.131 90.9134 284.104 81.3969 284.104 81.3969L273.458 78.6635Z" fill="#E2BE24"/>
<path d="M280.482 80.5693C280.482 80.5693 291.982 87.4403 299.448 86.1865C306.913 84.9326 309.755 83.4907 309.755 83.4907C309.755 83.4907 311.316 78.4755 307.267 76.6574C307.267 76.6574 309.74 66.3259 295.28 62.3638C280.82 58.4017 273.37 71.1406 272.427 75.8675C271.485 80.5944 280.482 80.5693 280.482 80.5693Z" fill="#501A12"/>
<path d="M377.299 281.708C377.299 281.708 201.158 261.835 179.527 235.592C157.896 209.35 182.104 191.257 202.601 196.51C223.098 201.764 377.299 281.708 377.299 281.708Z" fill="#20204F"/>
<path d="M168.601 143.637C168.601 143.637 172.474 157.642 155.128 160.776C155.128 160.776 170.677 162.181 170.368 175.246C170.368 175.246 168.439 162.808 183.37 160.776C183.37 160.776 168.351 159.435 168.601 143.637Z" fill="#F9AB2F"/>
<path d="M397.575 112.655C397.575 112.655 402.743 131.349 379.61 135.512C379.61 135.512 400.343 137.393 399.931 154.808C399.931 154.808 397.369 138.22 417.277 135.512C417.321 135.512 397.28 133.731 397.575 112.655Z" fill="#F9AB2F"/>
<path d="M378.992 143.022C378.992 143.022 382.85 157.027 365.533 160.162C365.533 160.162 381.083 161.566 380.774 174.631C380.774 174.631 378.845 162.193 393.776 160.162C393.761 160.162 378.742 158.82 378.992 143.022Z" fill="#F9AB2F"/>
</svg>
